<svg width="330" height="200" viewBox="0 0 330 200" fill="none" xmlns="http://www.w3.org/2000/svg">
<circle cx="99.4475" cy="100.552" r="99.4475" fill="#FEA95C"/>
<rect x="93.9227" y="16.5746" width="9.94475" height="17.6796" rx="4" fill="#FFE177"/>
<rect x="53.0387" y="30.3867" width="9.94475" height="17.6796" rx="4" transform="rotate(-30 53.0387 30.3867)" fill="#FFE177"/>
<rect x="129.282" y="159.668" width="9.94475" height="17.6796" rx="4" transform="rotate(-30 129.282 159.668)" fill="#FFE177"/>
<rect x="24.3094" y="62.756" width="9.94475" height="17.6796" rx="4" transform="rotate(-60 24.3094 62.756)" fill="#FFE177"/>
<rect x="154.696" y="136.789" width="9.94475" height="17.6796" rx="4" transform="rotate(-60 154.696 136.789)" fill="#FFE177"/>
<rect x="15.6665" y="105.411" width="9.94475" height="17.6796" rx="4" transform="rotate(-90 15.6665 105.411)" fill="#FFE177"/>
<rect x="165.746" y="104.972" width="9.94475" height="17.6796" rx="4" transform="rotate(-90 165.746 104.972)" fill="#FFE177"/>
<rect x="29.2818" y="146.734" width="9.94475" height="17.6796" rx="4" transform="rotate(-120 29.2818 146.734)" fill="#FFE177"/>
<rect x="29.2818" y="146.734" width="9.94475" height="17.6796" rx="4" transform="rotate(-120 29.2818 146.734)" fill="#FFE177"/>
<rect x="158.564" y="70.4908" width="9.94475" height="17.6796" rx="4" transform="rotate(-120 158.564 70.4908)" fill="#FFE177"/>
<rect x="61.6511" y="174.979" width="9.94475" height="17.6796" rx="4" transform="rotate(-150 61.6511 174.979)" fill="#FFE177"/>
<rect x="137.894" y="45.6978" width="9.94475" height="17.6796" rx="4" transform="rotate(-150 137.894 45.6978)" fill="#FFE177"/>
<rect x="104.306" y="183.622" width="9.94475" height="17.6796" rx="4" transform="rotate(180 104.306 183.622)" fill="#FFE177"/>
<circle cx="99.4475" cy="100.552" r="49.7238" fill="#FFE177"/>
<circle cx="229.282" cy="100" r="100" fill="#E2E2E2"/>
<path d="M281.431 14.6592C310.132 32.2347 329.282 63.8805 329.282 100C329.282 155.228 284.51 200 229.282 200C196.039 200 166.586 183.779 148.403 158.82C163.587 168.119 181.443 173.48 200.552 173.48C255.781 173.48 300.552 128.709 300.552 73.4805C300.552 51.4945 293.457 31.1659 281.431 14.6592Z" fill="#CECECE"/>
<path d="M235.822 40.1307C266.005 43.3904 289.502 68.9506 289.502 99.9999C289.502 133.259 262.541 160.221 229.282 160.221C198.232 160.221 172.672 136.723 169.413 106.54C177.922 115.124 189.72 120.442 202.762 120.442C228.698 120.442 249.724 99.4164 249.724 73.4803C249.724 60.4385 244.406 48.6402 235.822 40.1307Z" fill="#9C9C9C"/>
<path d="M145.878 12.5863C152.23 15.9464 158.175 19.9749 163.619 24.5775C142.579 42.9102 129.282 69.9018 129.282 99.9994C129.282 130.403 142.851 157.636 164.262 175.977C158.645 180.809 152.482 185.024 145.878 188.517C122.094 166.702 107.182 135.369 107.182 100.552C107.182 65.735 122.094 34.4014 145.878 12.5863Z" fill="#FE9738"/>
<path d="M116.652 53.8868C123.737 56.4998 130.062 60.6809 135.209 66.0079C131.374 76.6195 129.282 88.0657 129.282 100C129.282 112.235 131.481 123.957 135.503 134.792C130.304 140.265 123.872 144.555 116.652 147.218C110.556 132.884 107.182 117.112 107.182 100.553C107.182 83.9933 110.556 68.2213 116.652 53.8868Z" fill="#FFD15B"/>
</svg>
