<svg id="vector" xmlns="http://www.w3.org/2000/svg" width="200" height="200" viewBox="0 0 1024 1024"><path fill="#D770AD" d="M810.7,473.5h42.6v364.1h-42.6z" id="path_0"/><path fill="#EC87C0" d="M810.7,597.6V384.2l213.3,106.7zM786.5,771.1c-18.7,0 -35.6,7.7 -47.7,20.1 -12.2,-12.4 -29,-20.1 -47.8,-20.1 -36.9,0 -66.8,29.9 -66.8,66.9 0,76.4 114.6,143.2 114.6,143.2s114.6,-66.8 114.6,-143.2c0,-36.9 -29.9,-66.9 -66.8,-66.9z" id="path_1"/><path fill="#967ADC" d="M186.6,214.7h42.7V540.1H186.6z" id="path_2"/><path fill="#AC92EB" d="M162.4,472.6c-18.7,0 -35.6,7.7 -47.7,20.1 -12.1,-12.4 -29,-20.1 -47.8,-20.1 -36.9,0 -66.9,29.9 -66.9,66.9 0,76.4 114.6,143.3 114.6,143.3s114.6,-66.9 114.6,-143.3c0,-36.9 -29.9,-66.9 -66.9,-66.9z" id="path_3"/><path fill="#967ADC" d="M613.2,214.7h42.7v281.6h-42.7z" id="path_4"/><path fill="#AC92EB" d="M589.1,429.9c-18.8,0 -35.6,7.7 -47.8,20.1 -12.1,-12.4 -29,-20.1 -47.7,-20.1 -36.9,0 -66.9,29.9 -66.9,66.9 0,76.4 114.6,143.3 114.6,143.3s114.6,-66.9 114.6,-143.3c0,-36.9 -29.9,-66.9 -66.8,-66.9zM186.6,298.8l469.3,-84.1V42.8L186.6,126.8z" id="path_5"/></svg>