<svg id="vector" xmlns="http://www.w3.org/2000/svg" width="200" height="200" viewBox="0 0 1024 1024"><path fill="#333333" d="M512,938.7C276.7,938.7 85.3,747.3 85.3,512 85.3,276.7 276.7,85.3 512,85.3c235.3,0 426.7,191.4 426.7,426.7S747.3,938.7 512,938.7zM512,147.5C311,147.5 147.5,311 147.5,512S311,876.5 512,876.5c201,0 364.5,-163.5 364.5,-364.5C876.5,311 713,147.5 512,147.5zM360.7,507.5a106.7,106.7 0,0 1,-106.6 -106.6,106.7 106.7,0 0,1 106.6,-106.6 106.7,106.7 0,0 1,106.6 106.6,106.7 106.7,0 0,1 -106.6,106.6zM360.7,356.4a44.5,44.5 0,0 0,-44.4 44.4,44.5 44.5,0 0,0 44.4,44.4 44.5,44.5 0,0 0,44.4 -44.4,44.5 44.5,0 0,0 -44.4,-44.4zM287,836.8l-53.2,-32.2 126.7,-209.5c6.8,-11.4 18.4,-18.9 31.6,-20.6 13.1,-1.8 26.2,2.7 35.8,12l76.6,74.9 193.3,-277.8a42.7,42.7 0,0 1,37.5 -18.6c14.9,0.6 28.3,8.7 35.7,21.7l145.7,252.6 -53.8,31.1 -131,-227 -189.1,271.7a43.2,43.2 0,0 1,-31.5 18.4c-12.8,1.3 -25.3,-3.2 -34.5,-12.2l-75.5,-73.8 -114.4,189.2z" id="path_0"/></svg>