<?xml version="1.0" standalone="no"?><!DOCTYPE svg PUBLIC "-//W3C//DTD SVG 1.1//EN" "http://www.w3.org/Graphics/SVG/1.1/DTD/svg11.dtd"><svg t="1772294844671" class="icon" viewBox="0 0 1024 1024" version="1.1" xmlns="http://www.w3.org/2000/svg" p-id="2717" xmlns:xlink="http://www.w3.org/1999/xlink" width="200" height="200"><path d="M218.517333 245.013333l90.496-90.496a42.666667 42.666667 0 1 1 60.352 60.330667l-120.682666 120.682667a42.666667 42.666667 0 0 1-60.352 0L128 275.178667a42.666667 42.666667 0 1 1 60.330667-60.330667l30.186666 30.165333zM917.333333 234.666667a42.666667 42.666667 0 0 1-42.666666 42.666666H490.666667a42.666667 42.666667 0 1 1 0-85.333333h384a42.666667 42.666667 0 0 1 42.666666 42.666667zM218.517333 522.346667l90.496-90.496a42.666667 42.666667 0 1 1 60.352 60.330666l-120.682666 120.682667a42.666667 42.666667 0 0 1-60.352 0L128 552.512a42.666667 42.666667 0 1 1 60.330667-60.330667l30.186666 30.165334zM917.333333 533.333333a42.666667 42.666667 0 0 1-42.666666 42.666667H490.666667a42.666667 42.666667 0 1 1 0-85.333333h384a42.666667 42.666667 0 0 1 42.666666 42.666666zM218.517333 799.68l90.496-90.496a42.666667 42.666667 0 1 1 60.352 60.330667l-120.682666 120.682666a42.666667 42.666667 0 0 1-60.352 0L128 829.845333a42.666667 42.666667 0 1 1 60.330667-60.330666l30.186666 30.165333zM917.333333 832a42.666667 42.666667 0 0 1-42.666666 42.666667H490.666667a42.666667 42.666667 0 1 1 0-85.333334h384a42.666667 42.666667 0 0 1 42.666666 42.666667z" fill="#262C66" p-id="2718"></path></svg>