<svg width="200" height="200" viewBox="0 0 200 200" fill="none" xmlns="http://www.w3.org/2000/svg">
<ellipse cx="100" cy="99.9998" rx="100" ry="99.9998" fill="#E2E2E2"/>
<path d="M152.15 14.6599C180.85 32.2354 200 63.8805 200 99.9998C200 155.228 155.229 200 100 200C66.7574 200 37.3038 183.778 19.1212 158.82C34.3052 168.119 52.1614 173.48 71.2706 173.48C126.499 173.48 171.271 128.709 171.271 73.4802C171.271 51.4946 164.175 31.1665 152.15 14.6599Z" fill="#CECECE"/>
<path d="M106.54 40.1307C136.723 43.3904 160.221 68.9507 160.221 99.9999C160.221 133.259 133.259 160.221 99.9999 160.221C68.9507 160.221 43.3905 136.723 40.1308 106.54C48.6403 115.124 60.4386 120.441 73.4804 120.441C99.4164 120.441 120.442 99.4163 120.442 73.4803C120.442 60.4385 115.124 48.6402 106.54 40.1307Z" fill="#9C9C9C"/>
</svg>
