<?xml version="1.0" standalone="no"?><!DOCTYPE svg PUBLIC "-//W3C//DTD SVG 1.1//EN" "http://www.w3.org/Graphics/SVG/1.1/DTD/svg11.dtd"><svg t="1773483915689" class="icon" viewBox="0 0 1024 1024" version="1.1" xmlns="http://www.w3.org/2000/svg" p-id="8422" xmlns:xlink="http://www.w3.org/1999/xlink" width="200" height="200"><path d="M984.064 203.264v502.784c0 3.072-0.512 6.144-1.024 9.216-0.512 3.072-1.536 6.144-2.56 9.216-1.024 3.072-2.56 5.632-4.096 8.192-1.536 2.56-3.584 5.12-5.632 7.168-4.096 4.608-9.728 7.68-15.36 10.24s-11.776 3.584-17.92 3.584h-103.936c29.184 0 44.032-16.896 44.032-50.688V249.856c0-33.792-14.848-50.176-44.032-50.176H195.584c-29.184 0-44.032 16.896-44.032 50.176v196.608c-1.536 3.072-2.56 6.144-3.584 9.216-6.144 17.408-9.216 38.4-9.216 63.488 0 27.136 3.072 49.664 9.216 67.072 1.024 3.072 2.048 5.632 3.584 8.192v109.568c0 30.72 12.288 47.616 36.352 50.176 2.56 0.512 5.12 0.512 7.68 0.512H92.16c-2.56 0-4.608 0-6.656-0.512-3.584-0.512-7.68-1.536-10.752-3.072-5.632-2.56-10.752-6.144-15.36-10.24-2.048-2.048-4.096-4.608-5.632-7.168s-3.072-5.12-4.096-8.192c-2.56-5.632-3.584-12.288-3.584-18.432V119.296c0-6.144 1.024-12.288 3.584-18.432 1.024-3.072 2.56-5.632 4.096-8.192s3.584-5.12 5.632-7.168c4.096-4.608 9.728-7.68 15.36-10.24s11.776-3.584 17.92-3.584h321.024c9.216 0 17.92 2.56 25.6 7.68s13.824 12.288 17.408 20.992l23.04 54.784H936.96c6.144 0 12.288 1.536 17.92 3.584 5.632 2.56 10.752 6.144 15.36 10.24 2.048 2.56 4.096 4.608 5.632 7.168 2.048 2.56 3.072 5.632 4.096 8.192 1.024 3.072 2.048 5.632 2.56 9.216 1.024 3.584 1.536 6.144 1.536 9.728z" fill="#0B7D89" p-id="8423"></path><path d="M45.568 885.248c0-11.264 9.216-20.48 20.992-19.968h903.68c11.264 0 20.48 8.704 20.992 19.968v47.104c0 11.264-9.216 20.48-20.992 19.968H66.56c-11.264 0-20.48-8.704-20.992-19.968v-47.104z" fill="#20A7BE" p-id="8424"></path><path d="M473.088 755.712H563.2V865.28H473.088v-109.568zM934.4 263.68h-844.8c-23.04 0-37.888 7.168-44.032 22.016-2.048 5.12-3.072 11.264-3.072 17.92v410.624c0 25.6 13.824 38.4 43.008 39.936h848.896c26.624 0 42.496-9.728 46.08-29.696 0.512-3.072 1.024-6.656 1.024-10.24V303.616c0-27.136-15.872-39.936-47.104-39.936z m-600.064 378.88c-8.192 3.072-17.92 5.632-29.184 7.68-11.264 2.048-23.04 3.072-34.816 3.072-19.968 0-38.4-2.048-54.272-5.632-16.384-3.584-29.696-10.752-41.472-20.48-9.728-8.192-17.408-18.944-23.04-32.768-1.024-2.56-2.56-5.632-3.584-8.192-6.144-17.408-9.216-39.936-9.216-67.072 0-25.088 3.072-46.08 9.216-63.488 1.024-3.072 2.56-6.144 3.584-9.216 5.632-12.8 12.8-23.552 22.016-32.256 11.264-10.24 24.576-17.92 40.448-22.528 15.872-4.608 33.28-6.656 52.736-6.656 12.8 0 24.576 1.024 35.84 2.56s20.48 4.096 28.672 7.168v63.488c-17.408-6.656-36.864-9.728-58.368-9.728-9.728 0-17.408 1.024-24.064 3.584-6.656 2.56-11.776 6.144-16.384 11.776-4.096 5.632-7.168 12.8-9.216 22.016-2.048 9.216-2.56 20.48-2.56 33.792 0 13.824 1.024 25.6 3.072 34.816 2.048 9.216 5.12 15.872 9.728 20.992 4.608 5.12 9.728 8.704 16.384 10.752 6.656 2.048 14.336 3.072 24.064 3.072 9.728 0 19.968-0.512 29.696-2.048s20.48-4.096 30.208-7.168v62.464z m113.664 6.656H373.248V388.608h74.752v260.608z m219.648-196.096h-95.232v41.984h87.552v64h-87.552v90.112H497.664V388.608h169.984v64.512z m105.984 199.68c-14.336 0-28.16-1.024-41.472-2.56s-24.576-3.584-33.792-6.144v-64c4.096 1.024 9.216 2.56 14.848 3.584 5.632 1.536 11.776 2.048 18.432 3.072 6.144 1.024 12.8 1.536 19.456 2.048 6.656 0.512 12.8 0.512 18.432 0.512 7.68 0 13.824-0.512 18.432-1.024 4.608-0.512 8.192-2.048 10.752-3.584 2.56-1.536 4.096-4.096 5.12-6.656 0.512-2.56 1.024-6.144 1.024-10.24 0-2.56-0.512-5.12-1.536-7.68-1.024-2.048-2.56-4.096-5.12-6.144-2.56-2.048-6.656-3.584-11.264-5.632-5.12-2.048-11.264-4.096-19.456-5.632-14.336-3.072-26.112-7.168-35.328-11.264-9.216-4.096-16.384-9.216-21.504-15.36s-8.704-13.312-10.752-20.992c-2.048-8.192-3.072-17.92-3.072-29.696 0-15.36 2.56-28.16 7.168-38.4 4.608-10.24 11.776-18.944 20.48-25.088 8.704-6.144 19.456-10.752 32.256-13.312s26.624-4.096 42.496-4.096c16.384 0 29.696 1.024 40.448 2.56 10.752 2.048 19.968 4.096 27.136 6.656v59.904c-2.56-1.024-6.656-2.048-11.776-3.072-5.12-1.024-10.752-2.048-16.896-2.56-6.144-1.024-12.288-1.536-18.432-2.048-6.144-0.512-12.288-1.024-17.408-1.024-11.776 0-20.48 1.536-25.6 4.096s-7.68 7.68-7.68 13.824c0 3.072 0.512 5.632 1.536 7.68 1.024 2.048 2.56 4.096 5.632 5.632 2.56 1.536 6.656 3.072 11.776 4.608 5.12 1.536 11.776 3.072 19.456 5.12 16.384 4.096 29.184 8.704 38.912 13.824 9.728 5.12 16.896 10.752 22.016 17.408 5.12 6.656 8.192 14.336 9.728 23.04v1.024c1.536 8.704 2.048 18.432 2.048 29.696 0 8.192-0.512 15.872-2.048 22.528-1.024 4.096-2.048 8.192-3.072 11.776-3.584 10.24-9.216 18.944-17.408 25.6-8.192 7.168-18.944 12.288-32.768 15.872-13.824 4.608-30.72 6.144-51.2 6.144z" fill="#20A7BE" p-id="8425"></path></svg>