<svg id="vector" xmlns="http://www.w3.org/2000/svg" width="200" height="200" viewBox="0 0 1024 1024"><path fill="#000000" d="M512,949.2c238.7,0 437.2,-198 437.2,-437.2 0,-238.7 -198.8,-437.2 -437.6,-437.2C272.4,74.8 74.9,273.3 74.9,512c0,239.1 198,437.2 437.2,437.2zM512,876.3h-1.3c-200.2,0 -362.6,-162.3 -362.6,-362.6v-1.8L148.1,512c0,-201.9 161.2,-364.3 363.5,-364.3h0.6c201.1,0 364.1,163 364.1,364.1L876.3,512c0.4,202.3 -162.4,364.3 -364.3,364.3zM388.6,751.1h245.6c47.6,0 71.1,-24.4 71.1,-72.4v-206.2h-169.7c-29.6,0 -43.7,-13.7 -43.7,-43.3L491.9,256.5h-103.3c-47.1,0 -71.1,24.4 -71.1,72.4v349.7c0,48.4 24,72.4 71.1,72.4zM539,437.9h163.7c-1.3,-9.4 -8.2,-18.8 -19.3,-30l-126.9,-129.4c-10.7,-11.2 -20.6,-18 -30,-19.3v166.3c0,8.1 4.3,12.4 12.4,12.4z" id="path_0"/></svg>