<svg id="vector" xmlns="http://www.w3.org/2000/svg" width="200" height="200" viewBox="0 0 1024 1024"><path fill="#55B8FA" d="M512,0c283.9,0 512,228.1 512,512s-228.1,512 -512,512 -512,-228.1 -512,-512 228.1,-512 512,-512z" id="path_0"/><path fill="#FFFFFF" d="M744.7,302.5h-465.5c-20.9,0 -32.6,25.6 -16.3,39.6l146.6,132.7v200.1c0,7 2.3,14 9.3,18.6l155.9,116.4a23.3,23.3 0,0 0,37.2 -18.6v-316.5l146.6,-132.7c18.6,-14 7,-39.6 -14,-39.6zM574.8,449.2c-4.7,4.7 -7,11.6 -7,16.3v279.3l-109.4,-81.5L458.5,465.5c0,-7 -2.3,-14 -7,-16.3l-109.4,-100.1h344.4l-111.7,100.1z" id="path_1"/></svg>