<?xml version="1.0" standalone="no"?><!DOCTYPE svg PUBLIC "-//W3C//DTD SVG 1.1//EN" "http://www.w3.org/Graphics/SVG/1.1/DTD/svg11.dtd"><svg t="1772294860881" class="icon" viewBox="0 0 1024 1024" version="1.1" xmlns="http://www.w3.org/2000/svg" p-id="4525" xmlns:xlink="http://www.w3.org/1999/xlink" width="200" height="200"><path d="M342.784 682.666667c8.789333 0 17.152 3.626667 23.125333 10.026666a32.853333 32.853333 0 0 1 0 46.165334l-46.250666 47.402666 46.250666 44.928a33.450667 33.450667 0 0 1 0 46.805334 32.384 32.384 0 0 1-23.466666 9.472c-8.533333 0-16.725333-3.413333-22.784-9.472L273.365333 831.146667l-46.890666 46.805333a32.384 32.384 0 0 1-22.826667 9.472 33.621333 33.621333 0 0 1-23.466667-9.472 33.450667 33.450667 0 0 1 0-46.805333l46.293334-46.165334-46.250667-46.165333a32.853333 32.853333 0 0 1 0-44.928 31.744 31.744 0 0 1 46.250667 0l46.933333 44.928 46.250667-46.165333A31.744 31.744 0 0 1 342.784 682.666667z m537.258667 71.210666a32 32 0 1 1 0 64h-384a32 32 0 1 1 0-64h384zM342.784 426.666667c8.789333 0 17.152 3.626667 23.125333 10.026666a32.853333 32.853333 0 0 1 0 46.165334l-46.250666 47.402666 46.250666 44.928a33.450667 33.450667 0 0 1 0 46.805334 32.384 32.384 0 0 1-23.466666 9.472c-8.533333 0-16.725333-3.413333-22.784-9.472L273.365333 575.146667l-46.890666 46.805333a32.384 32.384 0 0 1-22.826667 9.472 33.621333 33.621333 0 0 1-23.466667-9.472 33.450667 33.450667 0 0 1 0-46.805333l46.293334-46.165334-46.250667-46.165333a32.853333 32.853333 0 0 1 0-44.928 31.744 31.744 0 0 1 46.250667 0l46.933333 44.928 46.250667-46.165333A31.744 31.744 0 0 1 342.784 426.666667z m537.258667 71.210666a32 32 0 1 1 0 64h-384a32 32 0 1 1 0-64h384zM342.784 170.666667c8.789333 0 17.152 3.626667 23.125333 10.026666a32.853333 32.853333 0 0 1 0 46.165334L319.658667 274.261333l46.250666 44.928a33.450667 33.450667 0 0 1 0 46.805334 32.384 32.384 0 0 1-23.466666 9.472c-8.533333 0-16.725333-3.413333-22.784-9.472L273.365333 319.146667 226.474667 365.994667a32.384 32.384 0 0 1-22.826667 9.472 33.621333 33.621333 0 0 1-23.466667-9.472 33.450667 33.450667 0 0 1 0-46.805334l46.293334-46.165333-46.250667-46.165333a32.853333 32.853333 0 0 1 0-44.928 31.744 31.744 0 0 1 46.250667 0l46.933333 44.928 46.250667-46.165334A31.744 31.744 0 0 1 342.784 170.666667z m537.258667 71.253333a32 32 0 1 1 0 63.957333h-384a32 32 0 1 1 0-64h384z" fill="#333333" p-id="4526"></path></svg>