<svg id="vector" xmlns="http://www.w3.org/2000/svg" width="200" height="200" viewBox="0 0 1024 1024"><path fill="#25314C" d="M512,53.3C259.1,53.3 53.3,259.1 53.3,512S259.1,970.7 512,970.7 970.7,764.9 970.7,512 764.9,53.3 512,53.3zM512,906.7c-217.6,0 -394.7,-177 -394.7,-394.7S294.4,117.3 512,117.3s394.7,177 394.7,394.7 -177,394.7 -394.7,394.7zM750.5,363.1a49.2,49.2 0,0 0,-52.4 6l-38.1,30.5c-6.7,-53.5 -42.5,-83.8 -101,-83.8L347.7,315.7c-65,0 -102.4,37.3 -102.4,102.4v187.7c0,65.1 37.3,102.4 102.4,102.4h211.2c58.5,0 94.3,-30.4 101,-83.9l38.1,30.5a49.3,49.3 0,0 0,52.5 6c17.4,-8.3 28.2,-25.5 28.2,-44.7L778.7,407.8c0,-19.2 -10.8,-36.3 -28.2,-44.7zM597.3,605.9c0,29.4 -9,38.4 -38.4,38.4L347.7,644.3c-29.4,0 -38.4,-9 -38.4,-38.4L309.4,418.1c0,-29.4 9,-38.4 38.4,-38.4h211.2c29.4,0 38.4,9 38.4,38.4v187.7zM714.7,586.2l-53.3,-42.7L661.3,480.4l53.3,-42.7v148.4z" id="path_0"/></svg>