<svg id="vector" xmlns="http://www.w3.org/2000/svg" width="200" height="200" viewBox="0 0 1024 1024"><path fill="#000000" d="M512,0C229.6,0 0,229.6 0,512s229.6,512 512,512 512,-229.6 512,-512 -229.6,-512 -512,-512zM512,64c14.8,0 31,7.5 49.5,27.5 18.6,20 37.3,51.8 53.2,92.7 15,38.2 27.1,84.5 36.2,135.7L373.1,320c9.1,-51.2 21.2,-97.5 36.2,-135.7 15.9,-40.8 34.8,-72.8 53.2,-92.8C481,71.6 497.2,64 512,64zM390.4,81c-15.4,23 -28.9,49.7 -40.8,80A796.8,796.8 0,0 0,307.6 320L107.5,320A447.6,447.6 0,0 1,390.4 81zM633.6,81A447.6,447.6 0,0 1,916.5 320h-200.1a796.8,796.8 0,0 0,-42 -159,421 421,0 0,0 -40.8,-80zM82.8,384h217.2a1220.5,1220.5 0,0 0,-7.4 128c0,44.5 3.1,86.8 7.4,128L82.8,640A448.2,448.2 0,0 1,64 512c0,-44.5 6.7,-87.4 18.8,-128zM364.5,384h295c4.5,40.8 7.9,83.2 7.9,128s-3.3,87 -7.9,128h-295c-4.5,-41 -7.9,-83.2 -7.9,-128s3.3,-87.2 7.9,-128zM724,384h217.3c12,40.6 18.8,83.5 18.8,128s-6.7,87.4 -18.8,128h-217.3c4.4,-41.2 7.4,-83.5 7.4,-128s-3.1,-86.9 -7.4,-128zM107.6,704h200c9.7,59.3 24,113.2 42,159.1 11.8,30.3 25.3,56.8 40.6,79.7A447.6,447.6 0,0 1,107.6 704zM373.2,704h277.5c-9,51.2 -21.1,97.7 -36,135.9 -15.9,40.9 -34.8,72.7 -53.2,92.8 -18.4,20 -34.7,27.3 -49.5,27.3 -14.8,0 -31,-7.4 -49.5,-27.4 -18.6,-20 -37.3,-51.8 -53.2,-92.7 -14.9,-38.1 -27,-84.7 -36,-135.9zM716.4,704h200a447.6,447.6 0,0 1,-282.6 238.8c15.3,-23 28.8,-49.5 40.6,-79.7 17.9,-46 32.3,-99.8 42,-159.1z" id="path_0"/></svg>